<svg width="160" height="30" viewBox="0 0 160 30" fill="none" xmlns="http://www.w3.org/2000/svg">
<path d="M11.8 29.36C9.56 29.36 7.61333 29.04 5.96 28.4C4.33333 27.76 3.09333 26.9067 2.24 25.84C1.38667 24.7733 0.96 23.6267 0.96 22.4C0.96 21.3867 1.22667 20.6133 1.76 20.08C2.29333 19.52 3.10667 19.24 4.2 19.24C4.2 21.5067 4.88 23.24 6.24 24.44C7.6 25.6133 9.50667 26.2 11.96 26.2C14.3067 26.2 16.1067 25.8133 17.36 25.04C18.6133 24.24 19.24 23.0667 19.24 21.52C19.24 20.5867 19 19.8267 18.52 19.24C18.0667 18.6267 17.28 18.1067 16.16 17.68C15.0667 17.2267 13.48 16.7733 11.4 16.32C8.94667 15.7867 7 15.1733 5.56 14.48C4.12 13.76 3.06667 12.8933 2.4 11.88C1.73333 10.8667 1.4 9.61333 1.4 8.12C1.4 6.62667 1.81333 5.32 2.64 4.2C3.49333 3.05333 4.69333 2.17333 6.24 1.56C7.78667 0.946665 9.58667 0.639998 11.64 0.639998C13.5867 0.639998 15.32 0.919998 16.84 1.48C18.3867 2.01333 19.5867 2.78666 20.44 3.8C21.32 4.78666 21.76 5.90667 21.76 7.16C21.76 7.93333 21.5067 8.54667 21 9C20.52 9.42667 19.76 9.64 18.72 9.64C18.4267 7.61333 17.7067 6.13333 16.56 5.2C15.44 4.26666 13.8 3.8 11.64 3.8C9.56 3.8 7.96 4.17333 6.84 4.92C5.72 5.64 5.16 6.66666 5.16 8C5.16 8.93333 5.36 9.70667 5.76 10.32C6.18667 10.9067 6.89333 11.4133 7.88 11.84C8.89333 12.2667 10.3067 12.68 12.12 13.08C14.84 13.6667 16.9733 14.32 18.52 15.04C20.0933 15.76 21.2267 16.64 21.92 17.68C22.6133 18.72 22.96 20 22.96 21.52C22.96 23.9467 21.9467 25.8667 19.92 27.28C17.8933 28.6667 15.1867 29.36 11.8 29.36ZM27.5422 3.76C27.5422 2.77333 27.8755 2.01333 28.5422 1.48C29.2089 0.919998 30.1289 0.639998 31.3022 0.639998V14.36L45.9022 0.639998C46.3555 1.01333 46.7289 1.41333 47.0222 1.84C47.3155 2.24 47.4622 2.6 47.4622 2.92C47.4622 3.58667 47.0622 4.29333 46.2622 5.04L36.9022 13.84L48.9822 28.32C48.6889 28.64 48.3422 28.8933 47.9422 29.08C47.5689 29.2667 47.1955 29.36 46.8222 29.36C45.7822 29.36 44.9422 28.9867 44.3022 28.24L34.1822 16.24L31.3022 18.92V26.36C31.3022 27.3733 30.9955 28.1333 30.3822 28.64C29.7689 29.12 28.8222 29.36 27.5422 29.36V3.76ZM53.36 29.36C52.56 29.2 51.9333 28.8667 51.48 28.36C51.0267 27.8267 50.8 27.1867 50.8 26.44C50.8 25.9333 50.92 25.4 51.16 24.84L60.72 1.84C61.04 1.04 61.6533 0.639998 62.56 0.639998C63.4133 0.639998 64.0133 1.04 64.36 1.84L73.92 24.84C74.16 25.4 74.28 25.9333 74.28 26.44C74.28 27.16 74.0533 27.7867 73.6 28.32C73.1467 28.8533 72.52 29.2 71.72 29.36L68.28 21H56.8L53.36 29.36ZM67.12 17.76L61.96 4.68L61.64 4.8L62.36 6.64L57.96 17.76H67.12ZM78.8703 3.76C78.8703 2.77333 79.2036 2.01333 79.8703 1.48C80.537 0.919998 81.457 0.639998 82.6303 0.639998L92.3103 23.88L91.5503 25.76L91.8303 25.88L102.07 0.639998C103.244 0.639998 104.164 0.919998 104.83 1.48C105.524 2.04 105.87 2.81333 105.87 3.8V29.36C103.39 29.36 102.15 28.3333 102.15 26.28V9.44L103.19 6.68L102.87 6.6L93.9503 28.28C93.817 28.6 93.6036 28.8533 93.3103 29.04C93.017 29.2533 92.7103 29.36 92.3903 29.36C92.0436 29.36 91.7236 29.2667 91.4303 29.08C91.137 28.8933 90.9236 28.6267 90.7903 28.28L81.8703 6.56L81.5503 6.68L82.5903 9.4V26.28C82.5903 27.2933 82.2703 28.0667 81.6303 28.6C81.017 29.1067 80.097 29.36 78.8703 29.36V3.76ZM113.408 29C112.874 29 112.421 28.8267 112.048 28.48C111.674 28.1333 111.488 27.72 111.488 27.24V2.76C111.488 2.25333 111.674 1.84 112.048 1.52C112.421 1.17333 112.874 0.999998 113.408 0.999998H124.528C126.848 0.999998 128.688 1.69333 130.048 3.08C131.434 4.46667 132.128 6.33333 132.128 8.68C132.128 9.93333 131.794 11.1067 131.128 12.2C130.461 13.2933 129.594 14.1067 128.528 14.64V14.72C130.048 15.1733 131.221 15.96 132.048 17.08C132.874 18.1733 133.288 19.5067 133.288 21.08C133.288 22.6267 132.954 24 132.288 25.2C131.648 26.4 130.741 27.3333 129.568 28C128.394 28.6667 127.048 29 125.528 29H113.408ZM124.448 13.36C125.541 13.36 126.474 12.92 127.248 12.04C128.048 11.1333 128.448 10.04 128.448 8.76C128.448 7.34667 128.088 6.24 127.368 5.44C126.674 4.64 125.701 4.24 124.448 4.24H115.208V13.36H124.448ZM125.248 25.76C126.608 25.76 127.674 25.36 128.448 24.56C129.221 23.7333 129.608 22.5867 129.608 21.12C129.608 19.7067 129.221 18.6 128.448 17.8C127.701 17 126.634 16.6 125.248 16.6H115.208V25.76H125.248ZM148.414 29.36C146.2 29.36 144.214 28.9333 142.454 28.08C140.72 27.2 139.36 26 138.374 24.48C137.387 22.9333 136.894 21.2267 136.894 19.36V10.56C136.894 8.69333 137.387 7.01333 138.374 5.52C139.36 4 140.72 2.81333 142.454 1.96C144.214 1.08 146.2 0.639998 148.414 0.639998C150.654 0.639998 152.64 1.08 154.374 1.96C156.134 2.81333 157.507 4 158.494 5.52C159.48 7.01333 159.974 8.69333 159.974 10.56V19.36C159.974 21.2267 159.48 22.9333 158.494 24.48C157.507 26 156.134 27.2 154.374 28.08C152.614 28.9333 150.627 29.36 148.414 29.36ZM148.414 26.08C150.894 26.08 152.827 25.4667 154.214 24.24C155.6 23.0133 156.294 21.3733 156.294 19.32V10.64C156.294 8.58667 155.6 6.96 154.214 5.76C152.827 4.53333 150.894 3.92 148.414 3.92C145.96 3.92 144.04 4.53333 142.654 5.76C141.267 6.96 140.574 8.58667 140.574 10.64V19.32C140.574 21.3733 141.267 23.0133 142.654 24.24C144.04 25.4667 145.96 26.08 148.414 26.08Z" fill="white"/>
</svg>
